{
  "title": "Alice.Through.the.Looking.Glass.2016.Unmarked.TC.XVID.AC3.HQ.Hiv",
  "uid": 14742778,
  "size": 1709708319,
  "categoryP": "video",
  "categoryS": "movies",
  "magnet": "?xt=urn:btih:4149745f77b4abb458d773c1cfc02e77fafa073f&amp;dn=Alice.Through.the.Looking.Glass.2016.Unmarked.TC.XVID.AC3.HQ.Hiv&amp;tr=udp%3A%2F%2Ftracker.leechers-paradise.org%3A6969&amp;tr=udp%3A%2F%2Fzer0day.ch%3A1337&amp;tr=udp%3A%2F%2Fopen.demonii.com%3A1337&amp;tr=udp%3A%2F%2Ftracker.coppersurfer.tk%3A6969&amp;tr=udp%3A%2F%2Fexodus.desync.com%3A6969",
  "seeders": 127,
  "leechers": 35,
  "uploader": "xxxlavalxxx",
  "files": 4,
  "time": 1464695742,
  "description": "http://extraimago.com/image/aKh3\r\n \nhttp://www.imdb.com/title/tt2567026/\r\n\r\n\r\nAlice returns to the whimsical world of Wonderland and travels back in time to save the Mad Hatter.\r\n\r\nDirector: James Bobin\r\nWriters: Linda Woolverton (screenplay), Lewis Carroll (books)\r\nStars: Mia Wasikowska, Johnny Depp, Helena Bonham Carter \r\nGenres: Adventure | Family | Fantasy\r\nCountry: USA\r\nLanguage: English\r\n\r\n\r\nAlice.Through.the.Looking.Glass.2016.Unmarked.TC.XVID.AC3.HQ.Hive-CM8\r\n\r\nThx Hive\r\n\r\nCM8 Doing It Right The First Time \r\n\r\nSources:\r\n\r\nVideo: Unmarked 720p Chinese Telecine \r\nAudio: English Studio Audio,came with the Chinese Telecine\r\nthx\r\n\r\n\r\nNotes:\r\nAnother special Encode and first on the net completely unmarked,\r\ntried to get a source file that doesnt have watermarkings, took me a day longer to get, but the result is excellent,\r\nits a masterpiece from this source. Have done 720p and avi for this,looks and sounds perfect a real cinemafeeling.\r\nQuality is tested and optimized to look perfect on a 85&quot; 4K TV.\r\n\r\n\r\nEncode:\r\nQuality is same as on Angry birds, as perfect as it can be\r\nThe Chinese telecine needed some work,fixed brightness,contrast,and colours.\r\nNothing is cut from the movie\r\n\r\nStudioAudio was great and already lipsynced,lol\r\n\r\nRemoved cinavia too on this one,it should work\r\n\r\ngot very nice and will do me till retail\r\nenjoy\r\n\r\nPS: still waiting for the unmarked TC Xmen,cpl days left, lets wait and see\r\n\r\nVideo: 720x400 @bitrate 1700 2pass\r\nAudio: English Studio AC3 2.0\r\nSample: yes included\r\n\r\n \nhttp://www.imdb.com/title/tt2567026/\r\n\r\n\r\nGeneral\r\nComplete name                  : Alice.Through.the.Looking.Glass.2016.Unmarked.TC.XVID.AC3.HQ.Hive-CM8.avi\r\nFormat                         : AVI\r\nFormat/Info                    : Audio Video Interleave\r\nFile size                      : 1.55 GiB\r\nDuration                       : 1h 52mn\r\nOverall bit rate               : 1 965 Kbps\r\nWriting application            : Nandub v1.0rc2\r\nWriting library                : Nandub build 1853/release\r\n\r\nVideo\r\nID                             : 0\r\nFormat                         : MPEG-4 Visual\r\nFormat profile                 : Advanced   \r\nFormat settings, BVOP          : 2\r\nFormat settings, QPel          : Yes\r\nFormat settings, GMC           : No warppoints\r\nFormat settings, Matrix        : Default (H.263)\r\nMuxing mode                    : Packed bitstream\r\nCodec ID                       : XVID\r\nCodec ID/Hint                  : XviD\r\nDuration                       : 1h 52mn\r\nBit rate                       : 1 697 Kbps\r\nWidth                          : 720 pixels\r\nHeight                         : 400 pixels\r\nDisplay aspect ratio           : 16:9\r\nFrame rate                     : 29.970 fps\r\nColor space                    : YUV\r\nChroma subsampling             : 4:2:0\r\nBit depth                      : 8 bits\r\nScan type                      : Progressive\r\nCompression mode               : Lossy\r\nBits/(Pixel*Frame)             : 0.197\r\nStream size                    : 1.34 GiB (86%)\r\nWriting library                : XviD 1.2.1 (UTC 2008-12-04)\r\n\r\nAudio\r\nID                             : 1\r\nFormat                         : AC-3\r\nFormat/Info                    : Audio Coding 3\r\nMode extension                 : CM (complete main)\r\nFormat settings, Endianness    : Big\r\nCodec ID                       : 2000\r\nDuration                       : 1h 52mn\r\nBit rate mode                  : Constant\r\nBit rate                       : 256 Kbps\r\nChannel(s)                     : 2 channels\r\nChannel positions              : Front: L R\r\nSampling rate                  : 48.0 KHz\r\nBit depth                      : 16 bits\r\nCompression mode               : Lossy\r\nStream size                    : 207 MiB (13%)\r\nAlignment                      : Split accross interleaves\r\nInterleave, duration           : 33 ms (1.00 video frame)\r\nInterleave, preload duration   : 500 ms\r\n\r\n \nhttp://extraimago.com/image/aKhJ \nhttp://extraimago.com/image/aKhK \nhttp://extraimago.com/image/aKhZ \nhttp://extraimago.com/image/aKhe \nhttp://extraimago.com/image/aKh4 \nhttp://extraimago.com/image/aKhB \nhttp://extraimago.com/image/aKhC \nhttp://extraimago.com/image/aKhY",
  "parsed": {
    "xt": "urn:btih:4149745f77b4abb458d773c1cfc02e77fafa073f",
    "dn": "Alice.Through.the.Looking.Glass.2016.Unmarked.TC.XVID.AC3.HQ.Hiv",
    "tr": [
      "udp://exodus.desync.com:6969",
      "udp://open.demonii.com:1337",
      "udp://tracker.coppersurfer.tk:6969",
      "udp://tracker.leechers-paradise.org:6969",
      "udp://zer0day.ch:1337"
    ],
    "infoHash": "4149745f77b4abb458d773c1cfc02e77fafa073f",
    "infoHashBuffer": {
      "type": "Buffer",
      "data": [
        65,
        73,
        116,
        95,
        119,
        180,
        171,
        180,
        88,
        215,
        115,
        193,
        207,
        192,
        46,
        119,
        250,
        250,
        7,
        63
      ]
    },
    "name": "Alice.Through.the.Looking.Glass.2016.Unmarked.TC.XVID.AC3.HQ.Hiv",
    "announce": [
      "udp://exodus.desync.com:6969",
      "udp://open.demonii.com:1337",
      "udp://tracker.coppersurfer.tk:6969",
      "udp://tracker.leechers-paradise.org:6969",
      "udp://zer0day.ch:1337"
    ],
    "urlList": []
  },
  "previous": 101,
  "peers": 111,
  "last_updated": "2016-12-26T22:25:40.714Z"
}